<svg xmlns="http://www.w3.org/2000/svg" viewBox="0 0 512 512">
  <defs>
    <linearGradient id="shieldGrad" x1="0%" y1="0%" x2="0%" y2="100%">
      <stop offset="0%" style="stop-color:#6366f1"/>
      <stop offset="100%" style="stop-color:#4338ca"/>
    </linearGradient>
    <linearGradient id="swordGrad" x1="0%" y1="0%" x2="100%" y2="100%">
      <stop offset="0%" style="stop-color:#e2e8f0"/>
      <stop offset="100%" style="stop-color:#94a3b8"/>
    </linearGradient>
  </defs>
  <!-- Shield body -->
  <path d="M256 28 L456 108 L456 248 C456 368 360 460 256 492 C152 460 56 368 56 248 L56 108 Z" fill="url(#shieldGrad)" stroke="#312e81" stroke-width="12"/>
  <!-- Shield inner border -->
  <path d="M256 56 L432 128 L432 248 C432 356 344 440 256 468 C168 440 80 356 80 248 L80 128 Z" fill="none" stroke="#818cf8" stroke-width="4" opacity="0.5"/>
  <!-- Crossed swords - left sword -->
  <g transform="translate(256,260) rotate(-35)">
    <rect x="-12" y="-120" width="24" height="180" rx="4" fill="url(#swordGrad)"/>
    <rect x="-36" y="48" width="72" height="16" rx="4" fill="#fbbf24"/>
    <polygon points="-10,-120 10,-120 0,-160" fill="#e2e8f0"/>
    <rect x="-8" y="64" width="16" height="40" rx="3" fill="#92400e"/>
  </g>
  <!-- Crossed swords - right sword -->
  <g transform="translate(256,260) rotate(35)">
    <rect x="-12" y="-120" width="24" height="180" rx="4" fill="url(#swordGrad)"/>
    <rect x="-36" y="48" width="72" height="16" rx="4" fill="#fbbf24"/>
    <polygon points="-10,-120 10,-120 0,-160" fill="#e2e8f0"/>
    <rect x="-8" y="64" width="16" height="40" rx="3" fill="#92400e"/>
  </g>
  <!-- Center emblem - book/ledger -->
  <rect x="228" y="230" width="56" height="68" rx="6" fill="#1e1b4b" stroke="#818cf8" stroke-width="3"/>
  <line x1="256" y1="238" x2="256" y2="290" stroke="#818cf8" stroke-width="2"/>
  <line x1="240" y1="250" x2="252" y2="250" stroke="#6366f1" stroke-width="2" opacity="0.6"/>
  <line x1="260" y1="250" x2="272" y2="250" stroke="#6366f1" stroke-width="2" opacity="0.6"/>
  <line x1="240" y1="260" x2="252" y2="260" stroke="#6366f1" stroke-width="2" opacity="0.6"/>
  <line x1="260" y1="260" x2="272" y2="260" stroke="#6366f1" stroke-width="2" opacity="0.6"/>
  <line x1="240" y1="270" x2="252" y2="270" stroke="#6366f1" stroke-width="2" opacity="0.6"/>
  <line x1="260" y1="270" x2="272" y2="270" stroke="#6366f1" stroke-width="2" opacity="0.6"/>
</svg>
